<svg xmlns="http://www.w3.org/2000/svg">
	<symbol id="tree" viewBox="0 0 32 32">
		<path d="M30,20V12H22v3H17V7a2,2,0,0,0-2-2H10V2H2v8h8V7h5V25a2,2,0,0,0,2,2h5v3h8V22H22v3H17V17h5v3ZM8,8H4V4H8ZM24,24h4v4H24Zm0-10h4v4H24Z" />
	</symbol>
	<symbol id="update" viewBox="0 0 32 32">
		<rect x="2" y="28" width="28" height="2"/>
		<path d="M25.4,9c0.8-0.8,0.8-2,0-2.8c0,0,0,0,0,0l-3.6-3.6c-0.8-0.8-2-0.8-2.8,0c0,0,0,0,0,0l-15,15V24h6.4L25.4,9z M20.4,4L24,7.6l-3,3L17.4,7L20.4,4z M6,22v-3.6l10-10l3.6,3.6l-10,10H6z"/>
	</symbol>
	<symbol id="delete" viewBox="0 0 32 32">
		<rect x="12" y="12" width="2" height="12"/>
		<rect x="18" y="12" width="2" height="12"/>
		<path d="M4,6V8H6V28a2,2,0,0,0,2,2H24a2,2,0,0,0,2-2V8h2V6ZM8,28V8H24V28Z"/>
		<rect x="12" y="2" width="8" height="2"/>
	</symbol>
	<symbol id="info" viewBox="0 0 24 24">
		<path d="M12 2C6.48 2 2 6.48 2 12s4.48 10 10 10 10-4.48 10-10S17.52 2 12 2zm1 15h-2v-6h2v6zm0-8h-2V7h2v2z" />
	</symbol>
	<symbol
		id="phantom-person"
		viewBox="0 0 6 8"
		preserveAspectRatio="none">
		<circle
			cx="3"
			cy="2.5"
			r="1.5" />
		<ellipse
			cx="3"
			cy="8"
			rx="3.5"
			ry="3" />
	</symbol>
</svg>