<svg xmlns="http://www.w3.org/2000/svg">
	<symbol id="tree" viewBox="0 0 32 32">
		<path d="M30,20V12H22v3H17V7a2,2,0,0,0-2-2H10V2H2v8h8V7h5V25a2,2,0,0,0,2,2h5v3h8V22H22v3H17V17h5v3ZM8,8H4V4H8ZM24,24h4v4H24Zm0-10h4v4H24Z" />
	</symbol>
	<symbol id="edit" viewBox="0 0 32 32">
		<rect x="2" y="28" width="28" height="2"/>
		<path d="M25.4,9c0.8-0.8,0.8-2,0-2.8c0,0,0,0,0,0l-3.6-3.6c-0.8-0.8-2-0.8-2.8,0c0,0,0,0,0,0l-15,15V24h6.4L25.4,9z M20.4,4L24,7.6l-3,3L17.4,7L20.4,4z M6,22v-3.6l10-10l3.6,3.6l-10,10H6z"/>
	</symbol>
	<symbol id="delete" viewBox="0 0 32 32">
		<rect x="12" y="12" width="2" height="12"/>
		<rect x="18" y="12" width="2" height="12"/>
		<path d="M4,6V8H6V28a2,2,0,0,0,2,2H24a2,2,0,0,0,2-2V8h2V6ZM8,28V8H24V28Z"/>
		<rect x="12" y="2" width="8" height="2"/>
	</symbol>
	<symbol id="info" viewBox="0 0 24 24">
		<path d="M12 2C6.48 2 2 6.48 2 12s4.48 10 10 10 10-4.48 10-10S17.52 2 12 2zm1 15h-2v-6h2v6zm0-8h-2V7h2v2z" />
	</symbol>
	<symbol id="phantom-person" viewBox="0 0 492 656">
		<path d="M 220.5,79.5 C 242.127,78.192 263.46,80.0253 284.5,85C 287.986,86.0339 291.319,87.3672 294.5,89C 320.138,89.6255 337.971,101.792 348,125.5C 358.366,155.225 359.199,185.225 350.5,215.5C 356.213,215.596 360.046,218.263 362,223.5C 362.667,228.833 362.667,234.167 362,239.5C 360.958,249.653 358.291,259.653 354,269.5C 349.667,275.167 344.667,280.167 339,284.5C 338.958,307.168 333.292,328.168 322,347.5C 317.5,354 313,360.5 308.5,367C 308.413,379.046 308.58,391.213 309,403.5C 308.96,411.987 311.294,419.653 316,426.5C 324.58,434.875 334.414,441.375 345.5,446C 371.851,454.78 397.518,465.113 422.5,477C 437.063,484.563 450.23,494.063 462,505.5C 475.276,522.031 482.11,540.531 482.5,561C 483.472,563.218 484.139,565.551 484.5,568C 483.958,573.993 483.124,579.826 482,585.5C 480.151,588.677 477.318,590.177 473.5,590C 321.833,590.667 170.167,590.667 18.5,590C 15.1268,589.899 12.6268,588.399 11,585.5C 4.66924,536.928 23.5026,501.428 67.5,479C 92.1327,466.901 117.466,456.568 143.5,448C 156.726,443.138 168.226,435.638 178,425.5C 179.711,423.044 181.044,420.377 182,417.5C 184.873,400.218 185.207,382.884 183,365.5C 174.376,353.889 167.043,341.556 161,328.5C 157.141,314.116 154.807,299.45 154,284.5C 142.067,276.58 135.067,265.58 133,251.5C 130.912,242.934 130.245,234.268 131,225.5C 131.749,222.243 133.416,219.576 136,217.5C 136.333,217.833 136.667,218.167 137,218.5C 138.789,216.771 140.956,216.104 143.5,216.5C 136.84,193.341 136.007,170.007 141,146.5C 150.985,115.513 171.485,94.6799 202.5,84C 208.52,82.0356 214.52,80.5356 220.5,79.5 Z M 238.5,138.5 C 254.227,137.011 268.894,140.178 282.5,148C 300.544,164.337 305.711,184.17 298,207.5C 295.597,211.968 292.93,216.301 290,220.5C 281.97,228.864 273.637,236.864 265,244.5C 263.667,246.5 262.333,248.5 261,250.5C 260.71,252.952 260.044,255.285 259,257.5C 258.816,265.079 258.316,272.579 257.5,280C 249.587,280.814 241.754,280.647 234,279.5C 233.144,268.123 233.478,256.79 235,245.5C 235.956,242.623 237.289,239.956 239,237.5C 246.364,229.802 254.03,222.469 262,215.5C 269.448,208.064 274.281,199.23 276.5,189C 272.714,168.218 260.38,159.552 239.5,163C 226.649,167.517 219.315,176.517 217.5,190C 209.093,190.357 200.76,189.69 192.5,188C 192.37,173.772 197.704,161.772 208.5,152C 217.373,144.881 227.373,140.381 238.5,138.5 Z M 242.5,297.5 C 256.433,297.6 262.933,304.6 262,318.5C 256.195,329.738 247.695,332.571 236.5,327C 230.739,321.763 228.905,315.263 231,307.5C 233.607,302.634 237.441,299.301 242.5,297.5 Z" />
	</symbol>
</svg>